# Blender v2.78 (sub 0) OBJ File: '21.blend'
# www.blender.org
mtllib Bulletin_board_01.mtl
g Bulletin_board_01.002_Cube.042
v -1.870558 1.805271 0.165278
v -0.337720 2.631153 0.113005
v -2.698092 3.336267 0.087711
v -1.165255 4.162148 0.035438
v -2.590980 3.137040 0.080986
v -2.639563 3.227322 0.082743
v -1.106726 4.053204 0.030470
v -1.058143 3.962922 0.028712
vn 0.0454 -0.0211 0.9987
vn 0.0345 -0.0009 0.9994
vn 0.0000 0.0632 0.9980
usemtl FFEB3B
s off
f 6//1 7//1 4//1 3//1
f 7//2 6//2 5//2 8//2
f 1//3 2//3 8//3 5//3
g Bulletin_board_01.001_Cube.041
v -3.243149 3.508763 0.035925
v -1.501195 3.508763 0.035925
v -3.243149 5.250789 0.024881
v -1.501195 5.250789 0.024881
v -3.243149 5.025016 0.009514
v -3.243149 5.127398 0.015188
v -1.501195 5.127398 0.015188
v -1.501195 5.025016 0.009514
vn 0.0000 -0.0783 0.9969
vn 0.0000 -0.0553 0.9985
vn 0.0000 0.0174 0.9998
usemtl FFEB3B
s off
f 14//4 15//4 12//4 11//4
f 15//5 14//5 13//5 16//5
f 9//6 10//6 16//6 13//6
g Bulletin_board_01_Cube.031
v -4.963406 -6.681030 0.222010
v -4.963406 6.681030 0.222010
v -4.963406 -6.681030 -0.222010
v -4.963406 6.681030 -0.222010
v 4.963406 -6.681030 0.222010
v 4.963406 6.681030 0.222010
v 4.963406 -6.681030 -0.222010
v 4.963406 6.681030 -0.222010
v -4.587752 -6.332238 0.222010
v -4.587752 6.332238 0.222010
v 4.587752 6.332238 0.222010
v 4.587752 -6.332238 0.222010
v -4.445895 -6.136440 0.004653
v -4.445895 6.136440 0.004653
v 4.445895 6.136440 0.004653
v 4.445895 -6.136440 0.004653
v -5.016215 -6.752115 -0.065075
v -5.016215 6.752115 -0.065075
v 5.016215 -6.752115 -0.065075
v 5.016215 6.752115 -0.065075
vn -0.9478 0.0000 -0.3189
vn 0.0000 0.0000 -1.0000
vn 0.9835 0.0000 0.1809
vn 0.0000 0.0000 1.0000
vn 0.0000 -0.9707 0.2404
vn 0.0000 0.9707 0.2404
vn -0.8374 0.0000 0.5465
vn 0.0000 0.7430 0.6693
vn 0.8374 0.0000 0.5465
vn 0.0000 -0.7430 0.6693
vn 0.0000 0.9109 -0.4126
vn 0.0000 -0.9109 -0.4126
vn 0.9478 0.0000 -0.3189
vn -0.9835 0.0000 0.1809
usemtl 795548
s off
f 33//7 34//7 20//7 19//7
f 19//8 20//8 24//8 23//8
f 35//9 36//9 22//9 21//9
f 22//10 18//10 26//10 27//10
f 33//11 35//11 21//11 17//11
f 36//12 34//12 18//12 22//12
f 28//13 27//13 31//13 32//13
f 21//10 22//10 27//10 28//10
f 18//10 17//10 25//10 26//10
f 17//10 21//10 28//10 25//10
f 25//14 28//14 32//14 29//14
f 26//15 25//15 29//15 30//15
f 27//16 26//16 30//16 31//16
f 24//17 20//17 34//17 36//17
f 19//18 23//18 35//18 33//18
f 23//19 24//19 36//19 35//19
f 17//20 18//20 34//20 33//20
usemtl DD9944
f 32//10 31//10 30//10 29//10
